<svg width="29" height="23" viewBox="0 0 29 23" fill="none" xmlns="http://www.w3.org/2000/svg">
<path opacity="0.2" d="M1.6665 10C0.838077 10 0.166504 10.6716 0.166504 11.5C0.166504 12.3284 0.838077 13 1.6665 13L1.6665 10ZM27.7272 12.5607C28.313 11.9749 28.313 11.0251 27.7272 10.4393L18.1812 0.8934C17.5954 0.307613 16.6457 0.307613 16.0599 0.8934C15.4741 1.47919 15.4741 2.42893 16.0599 3.01472L24.5452 11.5L16.0599 19.9853C15.4741 20.5711 15.4741 21.5208 16.0599 22.1066C16.6457 22.6924 17.5954 22.6924 18.1812 22.1066L27.7272 12.5607ZM1.6665 13L26.6665 13L26.6665 10L1.6665 10L1.6665 13Z" fill="#292532"/>
</svg>
