<svg width="84" height="64" viewBox="0 0 84 64" fill="none" xmlns="http://www.w3.org/2000/svg">
<circle cx="52" cy="32" r="32" fill="#FFB23E"/>
<circle cx="32" cy="32" r="32" fill="#65D072"/>
<path d="M39.6668 35.3337C39.3335 35.167 37.1668 34.167 36.8335 34.0003C36.5002 33.8337 36.1668 33.8337 35.8335 34.167C35.5002 34.5003 34.8335 35.5003 34.5002 35.8337C34.3335 36.167 34.0002 36.167 33.6668 36.0003C32.5002 35.5003 31.3335 34.8337 30.3335 34.0003C29.5002 33.167 28.6668 32.167 28.0002 31.167C27.8335 30.8337 28.0002 30.5003 28.1668 30.3337C28.3335 30.167 28.5002 29.8337 28.8335 29.667C29.0002 29.5003 29.1668 29.167 29.1668 29.0003C29.3335 28.8337 29.3335 28.5003 29.1668 28.3337C29.0002 28.167 28.1668 26.167 27.8335 25.3337C27.6668 24.167 27.3335 24.167 27.0002 24.167H26.1668C25.8335 24.167 25.3335 24.5003 25.1668 24.667C24.1668 25.667 23.6668 26.8337 23.6668 28.167C23.8335 29.667 24.3335 31.167 25.3335 32.5003C27.1668 35.167 29.5002 37.3337 32.3335 38.667C33.1668 39.0003 33.8335 39.3337 34.6668 39.5003C35.5002 39.8337 36.3335 39.8337 37.3335 39.667C38.5002 39.5003 39.5002 38.667 40.1668 37.667C40.5002 37.0003 40.5002 36.3337 40.3335 35.667L39.6668 35.3337ZM43.8335 20.167C37.3335 13.667 26.8335 13.667 20.3335 20.167C15.0002 25.5003 14.0002 33.667 17.6668 40.167L15.3335 48.667L24.1668 46.3337C26.6668 47.667 29.3335 48.3337 32.0002 48.3337C41.1668 48.3337 48.5002 41.0003 48.5002 31.8337C48.6668 27.5003 46.8335 23.3337 43.8335 20.167ZM39.3335 43.5003C37.1668 44.8337 34.6668 45.667 32.0002 45.667C29.5002 45.667 27.1668 45.0003 25.0002 43.8337L24.5002 43.5003L19.3335 44.8337L20.6668 39.8337L20.3335 39.3337C16.3335 32.667 18.3335 24.3337 24.8335 20.167C31.3335 16.0003 39.6668 18.167 43.6668 24.5003C47.6668 31.0003 45.8335 39.5003 39.3335 43.5003Z" fill="#0C1F0E"/>
</svg>
