<svg width="40" height="40" viewBox="0 0 40 40" fill="none" xmlns="http://www.w3.org/2000/svg">
<path d="M14.9499 36.6667H24.9499C33.2832 36.6667 36.6165 33.3334 36.6165 25V15C36.6165 6.66671 33.2832 3.33337 24.9499 3.33337H14.9499C6.61654 3.33337 3.2832 6.66671 3.2832 15V25C3.2832 33.3334 6.61654 36.6667 14.9499 36.6667Z" stroke="#FFB23E" stroke-width="3" stroke-linecap="round" stroke-linejoin="round"/>
<path d="M3.2832 21.1667L13.2832 21.1334C14.5332 21.1334 15.9332 22.0834 16.3999 23.25L18.2999 28.05C18.7332 29.1334 19.4165 29.1334 19.8499 28.05L23.6665 18.3667C24.0332 17.4334 24.7165 17.4 25.1832 18.2834L26.9165 21.5667C27.4332 22.55 28.7665 23.35 29.8665 23.35H36.6332" stroke="#FFB23E" stroke-width="3" stroke-linecap="round" stroke-linejoin="round"/>
</svg>
