<svg width="40" height="40" viewBox="0 0 40 40" fill="none" xmlns="http://www.w3.org/2000/svg">
<path d="M35.8168 20C36.3502 18.3 36.6668 16.4666 36.6668 14.4833C36.6668 9.33329 32.5168 5.16663 27.4002 5.16663C24.3668 5.16663 21.6835 6.63329 20.0002 8.89996C19.1439 7.74309 18.0285 6.80284 16.7435 6.15453C15.4585 5.50623 14.0395 5.16789 12.6002 5.16663C7.4835 5.16663 3.3335 9.33329 3.3335 14.4833C3.3335 26.15 14.1335 33.0333 18.9668 34.7C19.2502 34.8 19.6168 34.85 20.0002 34.85" stroke="#FFB23E" stroke-width="3" stroke-linecap="round" stroke-linejoin="round"/>
<path d="M35.9001 36L34.2334 34.3334M29.5667 35C30.9812 35 32.3378 34.4381 33.338 33.4379C34.3382 32.4378 34.9001 31.0812 34.9001 29.6667C34.9001 28.2522 34.3382 26.8957 33.338 25.8955C32.3378 24.8953 30.9812 24.3334 29.5667 24.3334C28.1522 24.3334 26.7957 24.8953 25.7955 25.8955C24.7953 26.8957 24.2334 28.2522 24.2334 29.6667C24.2334 31.0812 24.7953 32.4378 25.7955 33.4379C26.7957 34.4381 28.1522 35 29.5667 35Z" stroke="#FFB23E" stroke-width="3" stroke-linecap="round" stroke-linejoin="round"/>
</svg>
