<svg width="38" height="38" viewBox="0 0 38 38" fill="none" xmlns="http://www.w3.org/2000/svg">
<rect width="38" height="38" rx="19" fill="#6E2CC2" fill-opacity="0.1"/>
<path d="M23.005 14.095C22.827 14.095 22.653 14.1478 22.505 14.2467C22.357 14.3456 22.2416 14.4861 22.1735 14.6506C22.1054 14.815 22.0876 14.996 22.1223 15.1706C22.157 15.3452 22.2427 15.5055 22.3686 15.6314C22.4945 15.7573 22.6548 15.843 22.8294 15.8777C23.004 15.9124 23.185 15.8946 23.3494 15.8265C23.5139 15.7584 23.6544 15.643 23.7533 15.495C23.8522 15.347 23.905 15.173 23.905 14.995C23.905 14.7563 23.8102 14.5274 23.6414 14.3586C23.4726 14.1898 23.2437 14.095 23.005 14.095ZM26.455 15.91C26.4404 15.2877 26.3239 14.6721 26.11 14.0875C25.9193 13.5873 25.6225 13.1345 25.24 12.76C24.8686 12.3756 24.4147 12.0806 23.9125 11.8975C23.3295 11.6771 22.7131 11.5579 22.09 11.545C21.295 11.5 21.04 11.5 19 11.5C16.96 11.5 16.705 11.5 15.91 11.545C15.2869 11.5579 14.6705 11.6771 14.0875 11.8975C13.5863 12.0825 13.1327 12.3772 12.76 12.76C12.3756 13.1314 12.0806 13.5853 11.8975 14.0875C11.6771 14.6705 11.5579 15.2869 11.545 15.91C11.5 16.705 11.5 16.96 11.5 19C11.5 21.04 11.5 21.295 11.545 22.09C11.5579 22.7131 11.6771 23.3295 11.8975 23.9125C12.0806 24.4147 12.3756 24.8686 12.76 25.24C13.1327 25.6228 13.5863 25.9175 14.0875 26.1025C14.6705 26.3229 15.2869 26.4421 15.91 26.455C16.705 26.5 16.96 26.5 19 26.5C21.04 26.5 21.295 26.5 22.09 26.455C22.7131 26.4421 23.3295 26.3229 23.9125 26.1025C24.4147 25.9194 24.8686 25.6244 25.24 25.24C25.6242 24.8669 25.9213 24.4136 26.11 23.9125C26.3239 23.3279 26.4404 22.7123 26.455 22.09C26.455 21.295 26.5 21.04 26.5 19C26.5 16.96 26.5 16.705 26.455 15.91ZM25.105 22C25.0995 22.4761 25.0133 22.9478 24.85 23.395C24.7302 23.7214 24.5379 24.0163 24.2875 24.2575C24.0442 24.5054 23.7499 24.6973 23.425 24.82C22.9778 24.9833 22.5061 25.0695 22.03 25.075C21.28 25.1125 21.0025 25.12 19.03 25.12C17.0575 25.12 16.78 25.12 16.03 25.075C15.5357 25.0843 15.0434 25.0081 14.575 24.85C14.2643 24.7211 13.9835 24.5296 13.75 24.2875C13.5011 24.0466 13.3111 23.7514 13.195 23.425C13.0119 22.9714 12.9103 22.489 12.895 22C12.895 21.25 12.85 20.9725 12.85 19C12.85 17.0275 12.85 16.75 12.895 16C12.8984 15.5133 12.9872 15.031 13.1575 14.575C13.2895 14.2584 13.4922 13.9762 13.75 13.75C13.9779 13.4921 14.2595 13.2873 14.575 13.15C15.0322 12.985 15.514 12.8988 16 12.895C16.75 12.895 17.0275 12.85 19 12.85C20.9725 12.85 21.25 12.85 22 12.895C22.4761 12.9005 22.9478 12.9867 23.395 13.15C23.7358 13.2765 24.0417 13.4821 24.2875 13.75C24.5333 13.9804 24.7253 14.262 24.85 14.575C25.0167 15.0317 25.103 15.5138 25.105 16C25.1425 16.75 25.15 17.0275 25.15 19C25.15 20.9725 25.1425 21.25 25.105 22ZM19 15.1525C18.2394 15.154 17.4962 15.3809 16.8645 15.8046C16.2328 16.2282 15.7408 16.8296 15.4507 17.5328C15.1607 18.236 15.0855 19.0093 15.2348 19.7552C15.3841 20.501 15.7512 21.1859 16.2896 21.7232C16.8279 22.2606 17.5135 22.6263 18.2596 22.7741C19.0058 22.922 19.779 22.8453 20.4816 22.5539C21.1842 22.2625 21.7847 21.7693 22.2071 21.1368C22.6295 20.5042 22.855 19.7606 22.855 19C22.856 18.4938 22.7569 17.9925 22.5634 17.5247C22.37 17.057 22.0859 16.6321 21.7277 16.2745C21.3694 15.917 20.944 15.6338 20.4758 15.4412C20.0077 15.2486 19.5062 15.1505 19 15.1525ZM19 21.4975C18.506 21.4975 18.0232 21.351 17.6125 21.0766C17.2018 20.8022 16.8816 20.4121 16.6926 19.9558C16.5036 19.4994 16.4541 18.9972 16.5505 18.5128C16.6469 18.0283 16.8847 17.5833 17.234 17.234C17.5833 16.8847 18.0283 16.6469 18.5128 16.5505C18.9972 16.4541 19.4994 16.5036 19.9558 16.6926C20.4121 16.8816 20.8022 17.2018 21.0766 17.6125C21.351 18.0232 21.4975 18.506 21.4975 19C21.4975 19.328 21.4329 19.6527 21.3074 19.9558C21.1819 20.2588 20.9979 20.5341 20.766 20.766C20.5341 20.9979 20.2588 21.1819 19.9558 21.3074C19.6527 21.4329 19.328 21.4975 19 21.4975Z" fill="#6E2CC2"/>
</svg>
