<svg width="10" height="80" viewBox="0 0 10 80" fill="none" xmlns="http://www.w3.org/2000/svg">
<path opacity="0.4" d="M5.5 9C5.5 8.72386 5.27614 8.5 5 8.5C4.72386 8.5 4.5 8.72386 4.5 9L5.5 9ZM4.5 9L4.5 11.3571L5.5 11.3571L5.5 9L4.5 9ZM4.5 16.0714L4.5 20.7857L5.5 20.7857L5.5 16.0714L4.5 16.0714ZM4.5 25.5L4.5 30.2143L5.5 30.2143L5.5 25.5L4.5 25.5ZM4.5 34.9286L4.5 39.6429L5.5 39.6429L5.5 34.9286L4.5 34.9286ZM4.5 44.3571L4.5 49.0714L5.5 49.0714L5.5 44.3571L4.5 44.3571ZM4.5 53.7857L4.5 58.5L5.5 58.5L5.5 53.7857L4.5 53.7857ZM4.5 63.2143L4.5 67.9286L5.5 67.9286L5.5 63.2143L4.5 63.2143ZM4.5 72.6429L4.5 75L5.5 75L5.5 72.6429L4.5 72.6429Z" fill="#292532"/>
<circle cx="5" cy="5" r="4.5" fill="#F4F4F5" stroke="#292532"/>
<circle cx="5" cy="40" r="4.5" fill="#F4F4F5" stroke="#292532"/>
<circle cx="5" cy="75" r="4.5" fill="#F4F4F5"/>
<circle cx="5" cy="75" r="4.5" fill="#FFB23E"/>
<circle cx="5" cy="75" r="4.5" stroke="#292532"/>
</svg>
