<svg width="24" height="24" viewBox="0 0 24 24" fill="none" xmlns="http://www.w3.org/2000/svg">
<path d="M11 4.5H7M17 6V16C17 20 16 21 12 21H6C2 21 1 20 1 16V6C1 2 2 1 6 1H12C16 1 17 2 17 6Z" stroke="#292532" stroke-width="1.5" stroke-linecap="round" stroke-linejoin="round"/>
<path d="M9.0002 18.1C9.41128 18.1 9.80553 17.9367 10.0962 17.646C10.3869 17.3553 10.5502 16.9611 10.5502 16.55C10.5502 16.1389 10.3869 15.7447 10.0962 15.454C9.80553 15.1633 9.41128 15 9.0002 15C8.58911 15 8.19486 15.1633 7.90418 15.454C7.6135 15.7447 7.4502 16.1389 7.4502 16.55C7.4502 16.9611 7.6135 17.3553 7.90418 17.646C8.19486 17.9367 8.58911 18.1 9.0002 18.1Z" stroke="#292532" stroke-width="1.5" stroke-linecap="round" stroke-linejoin="round"/>
</svg>
