<svg width="19" height="19" viewBox="0 0 19 19" fill="none" xmlns="http://www.w3.org/2000/svg">
<path d="M0.93934 15.7885C0.353553 16.3742 0.353553 17.324 0.93934 17.9098C1.52513 18.4956 2.47487 18.4956 3.06066 17.9098L0.93934 15.7885ZM18.3492 1.99988C18.3492 1.17145 17.6777 0.499879 16.8492 0.49988L3.34924 0.499879C2.52082 0.499879 1.84924 1.17145 1.84924 1.99988C1.84924 2.82831 2.52082 3.49988 3.34924 3.49988H15.3492V15.4999C15.3492 16.3283 16.0208 16.9999 16.8492 16.9999C17.6777 16.9999 18.3492 16.3283 18.3492 15.4999L18.3492 1.99988ZM3.06066 17.9098L17.9099 3.06054L15.7886 0.939219L0.93934 15.7885L3.06066 17.9098Z" fill="white"/>
</svg>
