<svg width="50" height="39" viewBox="0 0 50 39" fill="none" xmlns="http://www.w3.org/2000/svg">
<path opacity="0.1" d="M0 35.4492C2.19727 34.8145 4.27246 33.9355 6.22559 32.8125C8.17871 31.6895 9.8877 30.3955 11.3525 28.9307C12.8174 27.417 13.9648 25.8057 14.7949 24.0967C15.625 22.3877 16.04 20.6299 16.04 18.8232C16.04 17.749 15.8203 16.8213 15.3809 16.04C14.9414 15.21 14.3799 14.7949 13.6963 14.7949C13.1104 14.7949 12.6221 14.917 12.2314 15.1611C11.8408 15.4053 11.4258 15.6738 10.9863 15.9668C10.5469 16.2598 10.0342 16.5283 9.44824 16.7725C8.91113 17.0166 8.17871 17.1387 7.25098 17.1387C6.27441 17.1387 5.34668 16.9434 4.46777 16.5527C3.58887 16.1133 2.80762 15.5273 2.12402 14.7949C1.48926 14.0137 0.976562 13.1348 0.585938 12.1582C0.195312 11.1328 0 10.0342 0 8.8623C0 7.59277 0.244141 6.4209 0.732422 5.34668C1.26953 4.22363 2.00195 3.27148 2.92969 2.49023C3.85742 1.70898 4.90723 1.09863 6.0791 0.65918C7.2998 0.219727 8.61816 0 10.0342 0C11.8408 0 13.5254 0.415039 15.0879 1.24512C16.6504 2.02637 18.0176 3.125 19.1895 4.54102C20.3613 5.9082 21.2646 7.51953 21.8994 9.375C22.583 11.1816 22.9248 13.1348 22.9248 15.2344C22.9248 18.5547 22.29 21.6064 21.0205 24.3896C19.7998 27.1729 18.1396 29.6143 16.04 31.7139C13.9893 33.7646 11.5723 35.4248 8.78906 36.6943C6.00586 37.915 3.07617 38.623 0 38.8184V35.4492ZM26.4404 35.4492C28.6865 34.8145 30.7861 33.9355 32.7393 32.8125C34.6924 31.6895 36.377 30.3955 37.793 28.9307C39.2578 27.417 40.4053 25.8057 41.2354 24.0967C42.0654 22.3877 42.4805 20.6299 42.4805 18.8232C42.4805 17.749 42.2607 16.8213 41.8213 16.04C41.4307 15.21 40.8936 14.7949 40.21 14.7949C39.624 14.7949 39.1357 14.917 38.7451 15.1611C38.3545 15.4053 37.9395 15.6738 37.5 15.9668C37.0605 16.2598 36.5479 16.5283 35.9619 16.7725C35.4248 17.0166 34.6924 17.1387 33.7646 17.1387C32.7393 17.1387 31.7871 16.9434 30.9082 16.5527C30.0293 16.1133 29.248 15.5273 28.5645 14.7949C27.9297 14.0137 27.417 13.1348 27.0264 12.1582C26.6357 11.1328 26.4404 10.0342 26.4404 8.8623C26.4404 7.59277 26.709 6.4209 27.2461 5.34668C27.7832 4.22363 28.4912 3.27148 29.3701 2.49023C30.2979 1.70898 31.3721 1.09863 32.5928 0.65918C33.8135 0.219727 35.1318 0 36.5479 0C38.3545 0 40.0391 0.415039 41.6016 1.24512C43.1641 2.02637 44.5068 3.125 45.6299 4.54102C46.8018 5.9082 47.7051 7.51953 48.3398 9.375C49.0234 11.1816 49.3652 13.1348 49.3652 15.2344C49.3652 18.5547 48.7549 21.6064 47.5342 24.3896C46.3135 27.1729 44.6533 29.6143 42.5537 31.7139C40.4541 33.7646 38.0127 35.4248 35.2295 36.6943C32.4463 37.915 29.5166 38.623 26.4404 38.8184V35.4492Z" fill="#292532"/>
</svg>
