<svg width="38" height="38" viewBox="0 0 38 38" fill="none" xmlns="http://www.w3.org/2000/svg">
<rect width="38" height="38" rx="19" fill="#1CCFF7" fill-opacity="0.1"/>
<path d="M27.2432 12.9625C27.2432 12.8301 27.2081 12.7001 27.1416 12.5856C27.0751 12.4712 26.9794 12.3764 26.8644 12.3109C26.7494 12.2454 26.619 12.2115 26.4867 12.2126C26.3543 12.2138 26.2246 12.25 26.1107 12.3175C25.6715 12.5791 25.1987 12.7794 24.7052 12.913C24.0009 12.3087 23.1027 11.978 22.1747 11.9815C21.1568 11.9827 20.1791 12.3794 19.4482 13.088C18.7173 13.7965 18.2903 14.7613 18.2575 15.7787C16.2503 15.4587 14.4312 14.4111 13.147 12.8357C13.0696 12.742 12.9708 12.6681 12.859 12.6205C12.7471 12.5729 12.6254 12.5528 12.5042 12.562C12.383 12.572 12.2661 12.6114 12.1635 12.6767C12.0609 12.7421 11.9758 12.8314 11.9155 12.937C11.6061 13.4769 11.4284 14.0822 11.3969 14.7036C11.3654 15.3251 11.4808 15.9453 11.734 16.5137L11.7325 16.5145C11.6185 16.5845 11.5244 16.6827 11.4592 16.7996C11.3941 16.9165 11.3601 17.0482 11.3605 17.182C11.3593 17.2921 11.366 17.4021 11.3807 17.5112C11.4573 18.4548 11.8754 19.338 12.5567 19.9952C12.5105 20.0834 12.4823 20.1798 12.4738 20.279C12.4653 20.3781 12.4767 20.478 12.5072 20.5727C12.8042 21.4983 13.4359 22.2798 14.2787 22.7642C13.4223 23.0953 12.4977 23.2107 11.5862 23.1002C11.4176 23.0793 11.2468 23.1162 11.1019 23.2049C10.957 23.2937 10.8466 23.429 10.7886 23.5887C10.7307 23.7484 10.7287 23.9231 10.783 24.0841C10.8373 24.2451 10.9446 24.3829 11.0875 24.475C12.6551 25.4845 14.4804 26.0211 16.345 26.0207C18.4594 26.0445 20.5224 25.3689 22.2131 24.0989C23.9039 22.8289 25.1275 21.0358 25.6937 18.9985C25.9584 18.111 26.0936 17.19 26.095 16.264L26.0942 16.114C26.4858 15.6916 26.7892 15.1952 26.9865 14.6541C27.1838 14.1129 27.2711 13.5378 27.2432 12.9625ZM24.7637 15.3715C24.6397 15.5179 24.5769 15.7064 24.5882 15.898C24.5957 16.0217 24.595 16.1462 24.595 16.264C24.5934 17.0464 24.4787 17.8244 24.2545 18.574C23.7922 20.3077 22.7615 21.8361 21.3274 22.9145C19.8933 23.9928 18.1389 24.5587 16.345 24.5215C15.7008 24.5216 15.0589 24.4458 14.4325 24.2957C15.2314 24.0381 15.9785 23.6409 16.639 23.1227C16.7608 23.027 16.8499 22.8958 16.8942 22.7474C16.9384 22.5989 16.9356 22.4404 16.8861 22.2936C16.8366 22.1468 16.7429 22.0189 16.6178 21.9275C16.4927 21.8361 16.3424 21.7857 16.1875 21.7832C15.564 21.7735 14.9687 21.5221 14.527 21.082C14.639 21.061 14.7502 21.0347 14.8607 21.0032C15.0227 20.9572 15.1645 20.8579 15.2633 20.7214C15.362 20.585 15.4119 20.4192 15.405 20.251C15.3981 20.0827 15.3347 19.9216 15.2251 19.7937C15.1154 19.6658 14.966 19.5786 14.8007 19.546C14.4388 19.4745 14.0983 19.3205 13.8056 19.096C13.513 18.8715 13.276 18.5825 13.1132 18.2515C13.2488 18.27 13.3852 18.2815 13.522 18.286C13.6845 18.2886 13.8436 18.2395 13.9763 18.1456C14.109 18.0518 14.2084 17.9181 14.26 17.764C14.3095 17.6085 14.307 17.4412 14.2529 17.2873C14.1987 17.1334 14.0959 17.0014 13.96 16.9112C13.6299 16.6915 13.3595 16.3934 13.173 16.0435C12.9865 15.6936 12.8897 15.303 12.8912 14.9065C12.8912 14.857 12.8927 14.8067 12.8957 14.758C14.5768 16.3259 16.7574 17.2502 19.0532 17.368C19.1691 17.3724 19.2845 17.3504 19.3907 17.3036C19.4969 17.2568 19.591 17.1865 19.666 17.098C19.7402 17.0089 19.7928 16.9038 19.8196 16.791C19.8465 16.6782 19.8467 16.5607 19.8205 16.4477C19.7775 16.2686 19.7556 16.0851 19.7552 15.901C19.756 15.2595 20.0112 14.6446 20.4647 14.191C20.9183 13.7374 21.5333 13.4823 22.1747 13.4815C22.5048 13.4805 22.8315 13.548 23.1343 13.6796C23.437 13.8113 23.7091 14.0043 23.9335 14.2465C24.02 14.3396 24.1289 14.409 24.2498 14.4481C24.3707 14.4872 24.4996 14.4947 24.6242 14.47C24.9323 14.4101 25.236 14.3294 25.5332 14.2285C25.3306 14.6431 25.0716 15.0277 24.7637 15.3715Z" fill="#1CCFF7"/>
</svg>
