<svg width="40" height="40" viewBox="0 0 40 40" fill="none" xmlns="http://www.w3.org/2000/svg">
<rect width="40" height="40" rx="20" fill="#65D072" fill-opacity="0.1"/>
<path d="M23.8327 21.6666C23.666 21.5833 22.5827 21.0833 22.416 21C22.2493 20.9166 22.0827 20.9166 21.916 21.0833C21.7493 21.25 21.416 21.75 21.2493 21.9166C21.166 22.0833 20.9993 22.0833 20.8327 22C20.2493 21.75 19.666 21.4166 19.166 21C18.7493 20.5833 18.3327 20.0833 17.9993 19.5833C17.916 19.4166 17.9993 19.25 18.0827 19.1666C18.166 19.0833 18.2493 18.9166 18.416 18.8333C18.4993 18.75 18.5827 18.5833 18.5827 18.5C18.666 18.4166 18.666 18.25 18.5827 18.1666C18.4993 18.0833 18.0827 17.0833 17.916 16.6666C17.8327 16.0833 17.666 16.0833 17.4993 16.0833H17.0827C16.916 16.0833 16.666 16.25 16.5827 16.3333C16.0827 16.8333 15.8327 17.4166 15.8327 18.0833C15.916 18.8333 16.166 19.5833 16.666 20.25C17.5827 21.5833 18.7493 22.6666 20.166 23.3333C20.5827 23.5 20.916 23.6666 21.3327 23.75C21.7493 23.9166 22.166 23.9166 22.666 23.8333C23.2493 23.75 23.7493 23.3333 24.0827 22.8333C24.2493 22.5 24.2493 22.1666 24.166 21.8333L23.8327 21.6666ZM25.916 14.0833C22.666 10.8333 17.416 10.8333 14.166 14.0833C11.4993 16.75 10.9993 20.8333 12.8327 24.0833L11.666 28.3333L16.0827 27.1666C17.3327 27.8333 18.666 28.1666 19.9993 28.1666C24.5827 28.1666 28.2493 24.5 28.2493 19.9166C28.3327 17.75 27.416 15.6666 25.916 14.0833ZM23.666 25.75C22.5827 26.4166 21.3327 26.8333 19.9993 26.8333C18.7493 26.8333 17.5827 26.5 16.4993 25.9166L16.2493 25.75L13.666 26.4166L14.3327 23.9166L14.166 23.6666C12.166 20.3333 13.166 16.1666 16.416 14.0833C19.666 12 23.8327 13.0833 25.8327 16.25C27.8327 19.5 26.916 23.75 23.666 25.75Z" fill="#65D072"/>
</svg>
