<svg width="24" height="17" viewBox="0 0 24 17" fill="none" xmlns="http://www.w3.org/2000/svg">
<path d="M23 6.21C23.0495 4.77865 22.7365 3.35802 22.09 2.08C21.6514 1.5556 21.0427 1.20171 20.37 1.08C17.5875 0.827525 14.7936 0.724043 12 0.769999C9.21667 0.721958 6.43274 0.822099 3.66003 1.07C3.11185 1.16972 2.60454 1.42684 2.20003 1.81C1.30003 2.64 1.20003 4.06 1.10003 5.26C0.954939 7.41756 0.954939 9.58244 1.10003 11.74C1.12896 12.4154 1.22952 13.0858 1.40003 13.74C1.5206 14.2451 1.76455 14.7123 2.11003 15.1C2.51729 15.5035 3.03641 15.7752 3.60003 15.88C5.75594 16.1461 7.92824 16.2564 10.1 16.21C13.6 16.26 16.67 16.21 20.3 15.93C20.8775 15.8316 21.4112 15.5595 21.83 15.15C22.11 14.8699 22.3191 14.5271 22.44 14.15C22.7977 13.0526 22.9733 11.9041 22.96 10.75C23 10.19 23 6.81 23 6.21ZM9.74003 11.35V5.16L15.66 8.27C14 9.19 11.81 10.23 9.74003 11.35Z" fill="#D82929"/>
</svg>
