<svg width="211" height="80" viewBox="0 0 211 80" fill="none" xmlns="http://www.w3.org/2000/svg">
<path d="M21.5226 79.9945C21.3424 79.8216 21.1744 79.6317 20.9772 79.4808C16.8503 76.3205 12.7186 73.1675 8.58934 70.0097C8.36292 69.8368 8.14136 69.6591 7.8005 69.3937C8.0951 69.3669 8.23875 69.3426 8.38239 69.3426C9.64845 69.3426 10.9169 69.3937 12.1781 69.3353C14.7419 69.2135 17.2302 68.7144 19.5845 67.648C23.0102 66.0971 25.4571 63.5504 27.1346 60.227C28.2838 57.9505 28.9801 55.5231 29.4184 53.0202C29.8493 50.5612 30.0417 48.0802 30.049 45.5846C30.049 45.4702 30.0368 45.3533 30.0319 45.2218C29.7665 45.1585 29.6229 45.3484 29.4622 45.458C27.3927 46.8482 25.2623 48.1386 23.0248 49.244C20.4343 50.5246 17.7609 51.574 14.9196 52.1559C12.4752 52.655 10.021 52.8084 7.5692 52.2216C3.15018 51.1625 0.659466 47.9536 0.123827 43.7999C-0.273032 40.7322 0.32104 37.7959 1.37771 34.9327C2.61454 31.5801 4.43571 28.5537 6.58557 25.7149C9.73366 21.5588 13.4758 17.9968 17.5613 14.783C21.486 11.6933 25.6786 9.00781 30.0563 6.60718C30.2194 6.5171 30.3923 6.44892 30.6187 6.3418C30.6406 6.57066 30.6698 6.71918 30.6698 6.8677C30.6698 8.07532 30.6722 9.2805 30.6649 10.4881C30.6601 11.1333 30.6528 11.1358 30.0417 11.3427C26.2898 12.6209 22.8154 14.4251 19.6673 16.8403C16.1321 19.5526 13.1983 22.7883 11.1263 26.7618C10.1281 28.6755 9.43419 30.689 9.21507 32.8486C9.10307 33.9637 9.15177 35.0617 9.49019 36.1403C10.1354 38.1928 11.5329 39.4028 13.6292 39.8046C15.2873 40.1235 16.9234 39.9287 18.54 39.5124C21.1793 38.8356 23.653 37.7399 25.9878 36.3619C27.9137 35.2249 29.7665 33.9661 31.651 32.7585C31.8287 32.6441 32.004 32.5272 32.2426 32.3714C32.3084 32.5905 32.3765 32.7439 32.3985 32.907C32.788 35.7191 33.2238 38.5263 33.5452 41.3457C34.0151 45.4872 34.1904 49.6506 34.0249 53.8188C33.8496 58.267 33.2604 62.652 31.8263 66.8933C30.6844 70.2702 29.0239 73.3453 26.6063 75.9918C25.3378 77.3796 23.9159 78.5823 22.3309 79.5928C22.1337 79.7169 21.9511 79.863 21.7636 79.9993H21.5299L21.5226 79.9945Z" fill="white"/>
<path d="M38.5802 0C38.6119 0.267819 38.6655 0.538073 38.6703 0.805892C38.6922 2.42011 38.702 4.03676 38.719 5.65098C38.7653 10.0091 38.814 14.3673 38.8651 18.7254C38.8919 21.0798 38.9284 23.4342 38.9625 25.7885C38.9625 25.9371 38.982 26.0831 39.0015 26.3485C39.2279 26.1391 39.3813 26.0028 39.5322 25.8616C42.8167 22.8158 46.4663 20.3348 50.6686 18.723C52.9037 17.866 55.2021 17.3157 57.6149 17.3961C59.7185 17.4667 61.6395 18.0729 63.2391 19.4948C64.4151 20.5417 65.182 21.8662 65.7006 23.3368C66.2849 24.9875 66.504 26.7016 66.5065 28.4424C66.5138 33.1901 66.5065 37.9378 66.5065 42.6855C66.5065 51.5771 66.5065 60.4711 66.5065 69.3627C66.5065 70.5289 66.6209 70.3025 65.535 70.6555C64.4808 70.9964 63.4168 71.3129 62.3577 71.6367C62.1751 71.6927 61.9876 71.7317 61.7515 71.7926C61.7247 71.6026 61.6882 71.4566 61.6857 71.3129C61.6784 70.7286 61.6833 70.1442 61.6833 69.5624C61.6833 58.18 61.6833 46.7953 61.6833 35.413C61.6833 34.5511 61.6103 33.7038 61.3595 32.876C60.6948 30.6945 59.1828 29.4893 56.9794 29.0973C55.241 28.7881 53.5708 29.0973 51.9493 29.7255C50.6565 30.2246 49.4586 30.9185 48.2826 31.6465C45.2368 33.5358 42.3468 35.654 39.4519 37.7601C38.3343 38.5732 37.2119 39.3791 36.0895 40.185C35.9215 40.3043 35.7438 40.4066 35.4784 40.577C35.4492 40.2654 35.4151 40.0633 35.4102 39.8588C35.364 37.5434 35.2909 35.2304 35.2885 32.915C35.2739 23.069 35.2861 13.223 35.2642 3.37696C35.2642 2.72689 35.4297 2.2862 35.9751 1.92099C36.686 1.44622 37.3483 0.898411 38.0276 0.377381C38.181 0.260515 38.3197 0.126605 38.4658 0C38.5048 0 38.5437 0 38.5827 0L38.5802 0Z" fill="white"/>
<path d="M162.466 51.0923C162.987 51.063 163.506 51.0411 164.024 51.0022C166.371 50.8244 168.719 50.637 171.066 50.4617C172.889 50.3253 174.713 50.1963 176.539 50.0745C177.613 50.0039 177.61 50.0112 177.98 49.0252C178.82 46.7852 179.665 44.5477 180.51 42.3078C180.566 42.1617 180.595 41.9937 180.69 41.8817C180.775 41.7819 180.948 41.665 181.055 41.6869C182.538 41.984 184.035 42.225 185.513 42.6584C185.513 42.841 185.525 42.9944 185.513 43.1429C185.26 45.7164 185.002 48.2899 184.746 50.8658C184.629 52.0272 184.515 53.1886 184.393 54.3499C184.34 54.8539 184.303 54.8904 183.768 54.8929C182.735 54.9002 181.703 54.8929 180.673 54.8953C171.969 54.8953 163.267 54.888 154.563 54.9148C153.901 54.9148 153.521 54.7224 153.246 54.1357C152.983 53.5732 152.64 53.0473 152.328 52.5093C152.233 52.3461 152.126 52.1928 151.931 52.054V54.8223C151.671 54.849 151.469 54.888 151.264 54.888C145.969 54.888 140.673 54.888 135.378 54.8831C135.188 54.8831 134.998 54.8563 134.781 54.8417C134.749 54.681 134.703 54.5544 134.703 54.4254C134.698 53.5099 134.693 52.5969 134.703 51.6815C134.708 51.2213 134.727 51.2043 135.195 51.1361C136.042 51.0119 136.889 50.8999 137.737 50.7757C137.963 50.7417 138.187 50.6857 138.404 50.6418C138.418 50.0819 136.943 44.8472 136.585 44.1874C136.403 44.1874 136.193 44.1874 135.981 44.1874C132.341 44.202 128.699 44.2166 125.059 44.2312C124.767 44.2312 124.475 44.2458 124.183 44.2385C123.905 44.2312 123.754 44.3554 123.684 44.6208C123.143 46.5905 122.598 48.5577 122.055 50.525C122.05 50.542 122.06 50.5639 122.072 50.6564C122.201 50.693 122.357 50.7587 122.517 50.7757C123.579 50.9024 124.643 51.0168 125.707 51.1361C126.123 51.1823 126.184 51.2213 126.191 51.6328C126.211 52.5847 126.201 53.5392 126.204 54.4936C126.204 54.7565 126.082 54.8904 125.814 54.888C125.658 54.888 125.502 54.8929 125.346 54.8929C121.064 54.8929 116.779 54.8929 112.496 54.8929C111.61 54.8929 111.607 54.8929 111.598 53.9896C111.59 53.2689 111.585 52.5507 111.585 51.83C111.585 51.6401 111.607 51.4477 111.622 51.197C112.304 51.063 112.961 50.8585 113.628 50.8196C114.512 50.7684 114.848 50.3156 115.113 49.517C118.929 37.9959 122.78 26.4846 126.625 14.9732C126.661 14.8636 126.71 14.7541 126.734 14.6396C126.805 14.3134 127.005 14.216 127.326 14.2209C128.436 14.2355 129.546 14.2257 130.654 14.2257C132.446 14.2257 134.236 14.2257 136.028 14.2257C136.804 14.2257 136.724 14.1722 136.965 14.8904C139.426 22.2311 141.881 29.5718 144.34 36.9149C145.803 41.2876 147.276 45.6555 148.717 50.0332C148.876 50.5104 149.112 50.7271 149.596 50.7855C150.212 50.861 150.823 50.9924 151.432 51.119C151.644 51.1629 151.844 51.2651 152.087 51.3552C152.289 51.0411 152.511 50.6978 152.732 50.357C158.809 40.9395 164.881 31.5147 170.976 22.1094C171.492 21.3132 172.149 20.6096 172.76 19.8792C173.196 19.3581 173.668 18.8639 174.121 18.355C174.245 18.2162 174.352 18.0604 174.491 17.8827C174.379 17.8583 174.328 17.834 174.275 17.8364C172.546 17.9363 170.817 18.0336 169.089 18.1408C166.798 18.2844 164.506 18.45 162.215 18.579C161.833 18.6009 161.731 18.8152 161.616 19.0952C160.772 21.1671 159.922 23.2366 159.072 25.3062C159.021 25.4328 158.963 25.5569 158.919 25.686C158.824 25.9733 158.653 26.0658 158.342 26.0171C157.054 25.8223 155.761 25.6543 154.473 25.4717C154.035 25.4108 153.991 25.35 154.047 24.8996C154.461 21.5421 154.875 18.1822 155.286 14.8247C155.352 14.2964 155.384 14.2574 155.953 14.2574C158.31 14.2525 160.665 14.255 163.021 14.2574C169.232 14.2623 175.443 14.2696 181.654 14.2793C182.219 14.2793 182.784 14.3207 183.346 14.3134C183.673 14.3085 183.836 14.4449 183.953 14.737C184.262 15.5137 184.581 16.288 184.934 17.0476C185.085 17.3738 185.048 17.6149 184.863 17.907C183.877 19.4482 182.915 21.004 181.937 22.5476C176.751 30.7331 171.562 38.9187 166.369 47.1018C166.184 47.3939 165.962 47.6763 165.712 47.9174C164.872 48.7281 164.012 49.5194 163.163 50.318C162.921 50.542 162.683 50.7684 162.442 50.9924C162.452 51.0265 162.464 51.0606 162.473 51.0923H162.466ZM135.499 39.895C133.754 33.3602 131.63 27.0202 130.106 20.3905C130.019 20.7045 129.958 20.9042 129.904 21.1063C129.279 23.5556 128.675 26.0098 128.025 28.4518C127.058 32.0771 126.06 35.6951 125.076 39.318C125.028 39.4933 125.001 39.6734 124.954 39.895H135.499Z" fill="white"/>
<path d="M107.87 26.131C107.639 26.148 107.466 26.1699 107.295 26.1699C105.484 26.1699 103.675 26.1724 101.864 26.1699C101.294 26.1699 101.289 26.1626 101.172 25.6148C100.744 23.5989 100.305 21.5829 99.9012 19.5621C99.7941 19.0338 99.5481 18.6418 99.0588 18.4616C98.4063 18.2206 97.7416 17.9796 97.0623 17.8408C95.4602 17.5194 93.8509 17.5389 92.2562 17.9211C90.4618 18.3521 89.0496 19.3771 87.9005 20.7917C86.6101 22.3815 85.8626 24.2295 85.3537 26.1846C84.8351 28.1689 84.543 30.1921 84.5235 32.2397C84.504 34.2605 84.5211 36.2886 84.6501 38.3046C84.8327 41.1118 85.3562 43.8606 86.5029 46.456C87.0897 47.7854 87.8128 49.0174 88.9571 49.962C90.2353 51.0163 91.6864 51.5762 93.3493 51.603C94.6422 51.6249 95.9155 51.5276 97.1548 51.1404C97.9218 50.9018 98.6351 50.5512 99.2998 50.0984C99.5481 49.9279 99.6577 49.7307 99.6577 49.424C99.648 45.9593 99.6504 42.4972 99.6455 39.0326C99.6455 38.5188 99.6017 38.4969 99.0758 38.4409C97.7026 38.2924 96.3319 38.1342 94.9611 37.9783C94.8662 37.9686 94.7737 37.9394 94.6909 37.9223C94.5278 37.4524 94.518 34.5795 94.669 33.9805C95.1583 33.832 111.03 33.8296 111.602 33.9903V37.9345C111.152 38.0197 110.704 38.1098 110.251 38.1902C109.964 38.2413 109.674 38.2754 109.387 38.3241C108.98 38.3947 108.953 38.4263 108.936 38.8548C108.929 39.0301 108.936 39.2054 108.936 39.3807C108.934 43.5441 108.929 47.7099 108.927 51.8733C108.927 52.1216 108.927 52.3724 108.927 52.6646C108.352 52.7741 107.836 52.8569 107.33 52.9738C104.999 53.5118 102.672 54.0572 100.342 54.605C97.6198 55.2429 94.8637 55.5765 92.0663 55.4742C88.8378 55.3549 85.7335 54.7049 82.8947 53.0858C78.7508 50.7192 76.1067 47.1621 74.6945 42.653C73.6573 39.3418 73.4066 35.9429 73.6866 32.4954C73.8399 30.6084 74.1175 28.7459 74.697 26.9393C76.7251 20.6212 80.9785 16.6112 87.3502 14.8217C89.5171 14.213 91.7351 13.9452 93.9775 13.8892C97.688 13.7991 101.357 14.213 105.004 14.8655C106.02 15.0457 107.028 15.2527 108.038 15.4621C108.566 15.5716 108.571 15.6057 108.54 16.117C108.391 18.5249 108.245 20.9329 108.096 23.3384C108.053 24.0371 108.014 24.7359 107.965 25.4347C107.95 25.6465 107.907 25.8534 107.865 26.131H107.87Z" fill="white"/>
<path d="M207.187 14.3555C207.221 14.6257 207.265 14.8132 207.267 15.0031C207.277 15.9186 207.282 16.8316 207.275 17.747C207.27 18.2437 207.236 18.2754 206.768 18.3557C205.619 18.5505 204.467 18.7428 203.316 18.9352C202.734 19.0326 202.707 19.0569 202.695 19.6315C202.692 19.7484 202.695 19.8652 202.695 19.9821C202.695 29.906 202.695 39.8324 202.697 49.7563C202.697 50.0241 202.697 50.2919 202.697 50.6303C204.234 50.8422 205.709 51.0443 207.155 51.2439C207.338 51.8574 207.318 54.297 207.131 54.8546H188.963C188.939 54.5916 188.902 54.3676 188.897 54.1412C188.883 53.3426 188.868 52.5465 188.871 51.7479C188.871 51.2147 188.897 51.2001 189.414 51.127C190.531 50.9712 191.649 50.8178 192.764 50.662C192.912 50.6401 193.058 50.5963 193.236 50.5524C193.246 50.3114 193.265 50.0996 193.265 49.8878C193.265 39.8665 193.265 29.8427 193.265 19.8214C193.265 19.7435 193.265 19.6656 193.265 19.5877C193.253 19.0326 193.246 19.0277 192.681 18.9327C191.549 18.7404 190.419 18.5505 189.289 18.3533C188.866 18.2778 188.832 18.2486 188.827 17.8298C188.815 16.8364 188.815 15.8455 188.822 14.8522C188.824 14.4309 188.873 14.3823 189.299 14.3749C190.137 14.3603 190.974 14.3628 191.812 14.3603C196.698 14.3579 201.585 14.3555 206.471 14.3555C206.683 14.3555 206.895 14.3555 207.187 14.3555Z" fill="white"/>
<path d="M197.753 10.9241C196.618 10.9339 195.591 10.6466 194.69 9.9551C193.721 9.21495 193.187 8.23132 193.144 7.01396C193.127 6.49537 193.146 5.95729 193.253 5.45087C193.611 3.76605 194.624 2.64121 196.294 2.17374C197.553 1.82071 198.834 1.81827 200.092 2.19079C201.933 2.73373 202.999 4.16047 203.009 6.08147C203.009 6.44911 202.994 6.82405 202.921 7.18196C202.515 9.18086 201.276 10.386 199.255 10.7488C198.761 10.8365 198.254 10.8681 197.753 10.9241Z" fill="white"/>
<path d="M210.559 71.3536C209.166 71.4218 207.776 71.3877 206.357 71.3853V70.6573C206.608 70.6062 206.829 70.5477 207.056 70.521C207.613 70.4577 207.618 70.4625 207.62 69.8831C207.625 68.8532 207.62 67.8257 207.62 66.7958C207.62 65.3009 207.62 63.806 207.62 62.3111C207.62 62.1017 207.62 61.8899 207.62 61.6513C207.182 61.5661 206.79 61.4882 206.347 61.4005C206.33 61.1619 206.313 60.9403 206.291 60.6336C207.043 60.563 207.754 60.6043 208.463 60.5995C209.162 60.5922 209.86 60.6043 210.559 60.6092V61.4273C210.16 61.493 209.763 61.5588 209.332 61.6294V70.4333C209.765 70.5112 210.162 70.5818 210.559 70.6524V71.3536Z" fill="white"/>
<path d="M81.02 71.3152C80.8837 70.7333 80.9957 70.6043 81.5678 70.5239C82.1351 70.446 82.14 70.4436 82.1424 69.8909C82.1473 68.8975 82.1448 67.9066 82.1424 66.9132C82.1424 66.7598 82.1205 66.6065 82.1108 66.4628C81.6603 66.3338 77.8768 66.3143 77.2316 66.4385C77.217 66.6138 77.1926 66.8012 77.1902 66.9911C77.1853 67.9455 77.1853 68.8975 77.1902 69.8519C77.1926 70.4655 77.1975 70.463 77.7867 70.5239C77.9766 70.5434 78.1665 70.5872 78.3929 70.6262V71.3712H74.439V70.653C74.6824 70.6043 74.9064 70.5312 75.1304 70.519C75.4591 70.502 75.5784 70.3364 75.5638 70.0321C75.5589 69.9347 75.5638 69.8373 75.5638 69.7399C75.5541 67.2492 75.5443 64.7585 75.5322 62.2678C75.5322 62.0608 75.4981 61.8539 75.481 61.6469C75.1183 61.5568 74.8042 61.4765 74.4609 61.3913V60.6243C75.7732 60.5854 77.0465 60.5903 78.3808 60.6146C78.4003 60.8849 78.4149 61.1064 78.4343 61.3815C78.0302 61.4692 77.6577 61.5495 77.2194 61.6469C77.1683 62.857 77.1878 64.0719 77.2072 65.2698C77.6917 65.3964 81.1101 65.4329 82.1059 65.3307C82.196 64.1303 82.1254 62.9154 82.1448 61.6421C81.9355 61.6031 81.7504 61.569 81.5678 61.5325C80.9616 61.4083 80.9275 61.3523 81.0638 60.617C82.3201 60.5927 83.5935 60.5927 84.918 60.617V61.3815C84.5796 61.4668 84.2484 61.552 83.8589 61.6494C83.8467 61.8222 83.8224 62.0073 83.8224 62.1947C83.8199 64.7439 83.8199 67.293 83.8224 69.8422C83.8224 70.4314 83.8272 70.4338 84.4067 70.5239C84.8157 70.5872 85.0689 70.6651 84.9302 71.2689C84.5284 71.4126 81.7796 71.4491 81.0249 71.3128L81.02 71.3152Z" fill="white"/>
<path d="M165.475 68.6926C165.592 66.2895 165.51 63.9838 165.527 61.6416C165.261 61.5954 165.057 61.5613 164.852 61.5223C164.251 61.4055 164.214 61.3421 164.358 60.6458C164.514 60.6312 164.682 60.602 164.852 60.5996C165.631 60.5947 166.408 60.5923 167.187 60.5996C167.815 60.6044 167.852 60.6653 167.703 61.4055C167.394 61.4736 167.058 61.5491 166.649 61.6392V71.344C166.25 71.3586 165.923 71.4024 165.602 71.3708C165.458 71.3562 165.295 71.2198 165.198 71.0956C164.981 70.8229 164.799 70.521 164.604 70.2313C162.982 67.8063 161.361 65.3813 159.739 62.9564C159.698 62.8955 159.649 62.8395 159.545 62.7032V70.431C159.973 70.4991 160.384 70.5649 160.823 70.633V71.344H157.344C157.319 71.2101 157.285 71.0835 157.275 70.9544C157.253 70.6939 157.382 70.5527 157.641 70.5308C157.757 70.521 157.874 70.5089 157.989 70.504C158.266 70.4894 158.425 70.3628 158.41 70.0657C158.405 69.9878 158.41 69.9099 158.41 69.832C158.41 67.3023 158.41 64.7751 158.41 62.2454C158.41 62.0555 158.393 61.8632 158.381 61.6441C158.018 61.5637 157.682 61.4907 157.309 61.4103V60.6556C157.473 60.6336 157.638 60.5971 157.804 60.5947C158.349 60.5874 158.894 60.6166 159.437 60.5825C159.839 60.5582 160.085 60.7164 160.302 61.0378C161.249 62.4402 162.215 63.828 163.165 65.2304C163.917 66.3382 164.653 67.4582 165.475 68.6901V68.6926Z" fill="white"/>
<path d="M102.285 71.362H98.5454C98.3628 70.6949 98.4212 70.6024 99.0226 70.5269C99.1735 70.5074 99.3245 70.488 99.5582 70.4563C99.5046 70.225 99.4754 70.0205 99.4121 69.8306C99.2636 69.3923 99.0956 68.9565 98.9374 68.5207C98.4748 68.4939 98.0146 68.455 97.552 68.4452C96.8119 68.433 96.0741 68.4379 95.334 68.4452C94.8592 68.4501 94.8519 68.455 94.7107 68.8859C94.55 69.3802 94.4064 69.8793 94.2432 70.4198C94.6523 70.505 95.0029 70.578 95.3875 70.6559C95.4022 70.897 95.4168 71.0991 95.4314 71.3474H91.9741C91.8669 70.6973 91.8864 70.6121 92.405 70.5342C92.7727 70.4782 92.8798 70.2567 92.9796 69.9718C93.5347 68.3746 94.0947 66.7774 94.6523 65.1803C95.1319 63.8046 95.6091 62.4242 96.0912 61.0485C96.2786 60.5153 96.2835 60.508 96.8362 60.5056C98.1583 60.5007 97.8953 60.3839 98.297 61.5136C99.288 64.2965 100.264 67.0866 101.238 69.8768C101.367 70.2469 101.496 70.5342 101.981 70.5464C102.351 70.5561 102.392 70.7241 102.288 71.3596L102.285 71.362ZM98.5551 67.4397C98.4967 66.8359 97.0724 62.4753 96.8216 62.1344C96.2738 63.8996 95.7333 65.6502 95.1782 67.4397H98.5575H98.5551Z" fill="white"/>
<path d="M175.319 60.626C175.575 60.6138 175.767 60.5968 175.957 60.5968C177.982 60.5968 180.006 60.5968 182.031 60.5992C182.168 60.5992 182.314 60.5773 182.436 60.6211C182.548 60.6601 182.708 60.7672 182.716 60.8573C182.772 61.5269 182.935 62.194 182.854 62.9146C182.65 62.9317 182.482 62.9463 182.311 62.956C182.08 62.9682 181.958 62.8489 181.897 62.6298C181.8 62.2962 181.686 61.9651 181.561 61.5829C180.432 61.5439 179.314 61.5049 178.216 61.4684C178.08 61.9408 178.06 64.6701 178.182 65.364C178.874 65.4224 179.584 65.3786 180.327 65.364C180.383 65.1838 180.446 65.0255 180.483 64.86C180.639 64.1612 180.639 64.1588 181.381 64.2464C181.527 64.6798 181.549 66.9392 181.403 67.5601C181.289 67.5796 181.16 67.6039 181.028 67.6185C180.709 67.6526 180.573 67.4797 180.529 67.1851C180.49 66.9222 180.429 66.6617 180.376 66.3817H178.15V70.4647C178.335 70.4745 178.503 70.4939 178.671 70.4891C179.604 70.4598 180.539 70.399 181.471 70.4038C181.915 70.4038 182.143 70.2505 182.287 69.8439C182.433 69.4251 182.638 69.0258 182.828 68.5924C183.003 68.6168 183.156 68.6192 183.3 68.6581C183.668 68.7628 183.758 68.8627 183.709 69.2425C183.619 69.9339 183.49 70.6205 183.38 71.2828C182.859 71.4142 175.952 71.4313 175.351 71.3169C175.2 70.6668 175.263 70.5743 175.911 70.5158C176.044 70.5037 176.178 70.4866 176.376 70.4623C176.397 70.2967 176.439 70.1312 176.439 69.968C176.444 67.3215 176.441 64.6749 176.439 62.0284C176.439 61.914 176.417 61.7971 176.4 61.6413C176.052 61.5682 175.701 61.4952 175.319 61.4149V60.626Z" fill="white"/>
<path d="M150.237 71.3593H146.541C146.375 70.7579 146.453 70.6192 146.986 70.534C147.154 70.5072 147.327 70.4877 147.568 70.456C147.439 69.7548 147.201 69.1291 146.962 68.4766H142.86C142.658 69.1096 142.455 69.7475 142.236 70.4293C142.655 70.5023 143.006 70.5632 143.393 70.6313C143.405 70.8797 143.417 71.0866 143.427 71.2838C142.916 71.4251 140.425 71.4251 139.928 71.2985C139.858 70.8286 139.918 70.624 140.315 70.5534C140.788 70.4682 140.929 70.1761 141.063 69.7841C142.061 66.877 143.076 63.9773 144.084 61.0751C144.269 60.5419 144.279 60.5248 144.82 60.5127C146.181 60.481 145.879 60.369 146.285 61.4987C147.274 64.2426 148.235 66.9987 149.195 69.7548C149.343 70.1785 149.472 70.5291 150.027 70.568C150.417 70.5948 150.446 70.7872 150.237 71.3593ZM143.188 67.4126C144.031 67.5368 146.164 67.5052 146.621 67.3615C146.059 65.6183 145.496 63.8774 144.934 62.1366L144.824 62.1512C144.284 63.8896 143.743 65.628 143.188 67.4151V67.4126Z" fill="white"/>
<path d="M124.17 60.6357C124.385 60.6235 124.575 60.6016 124.764 60.5991C127.353 60.5967 129.938 60.5943 132.526 60.5967C133.164 60.5967 133.189 60.6235 133.218 61.237C133.259 62.0916 133.298 62.9462 133.335 63.8008C133.344 64.0297 133.335 64.2585 133.335 64.519C133.13 64.5483 132.982 64.5848 132.836 64.5872C132.388 64.5897 132.339 64.5507 132.266 64.11C132.147 63.4015 132.037 62.6906 131.923 61.9796C131.903 61.8676 131.871 61.7556 131.83 61.5779H129.575C129.471 61.9553 129.429 69.5248 129.544 70.3721C130.128 70.6716 130.837 70.3794 131.492 70.6935C131.501 70.8785 131.511 71.0806 131.518 71.273C131.017 71.419 126.741 71.4385 125.977 71.307V70.6789C126.374 70.4914 126.805 70.5328 127.224 70.5085C127.749 70.4792 127.791 70.4476 127.793 69.929C127.796 67.2654 127.793 64.6018 127.791 61.9358C127.791 61.8214 127.769 61.7094 127.752 61.5633H125.436C125.254 62.5737 125.081 63.5403 124.898 64.541H123.966C123.851 64.1392 123.988 61.4586 124.168 60.6332L124.17 60.6357Z" fill="white"/>
<path d="M197.83 63.4338C197.514 63.4655 197.251 63.4947 196.978 63.5215C196.71 63.0905 196.737 62.6279 196.65 62.1994C196.528 61.6053 196.53 61.5883 195.939 61.4447C195.364 61.3034 194.792 61.2718 194.21 61.43C193.631 61.5883 193.253 61.934 193.124 62.5232C192.993 63.1222 193.131 63.67 193.604 64.0547C194.005 64.3834 194.47 64.6414 194.928 64.8971C195.335 65.1235 195.778 65.2842 196.187 65.5082C196.63 65.7492 197.076 65.9951 197.48 66.297C199.413 67.7433 198.539 70.0757 197.224 70.8768C196.579 71.2687 195.885 71.4757 195.13 71.5293C194.127 71.6023 192.321 71.2785 191.371 70.7915C191.41 69.9808 191.449 69.1335 191.493 68.2302C191.826 68.2107 192.109 68.1961 192.391 68.1815C192.671 68.6125 192.649 69.0775 192.676 69.506C192.71 70.0514 192.968 70.29 193.453 70.4385C194.217 70.6722 194.977 70.7282 195.746 70.4945C196.362 70.307 196.737 69.881 196.852 69.2577C196.966 68.6271 196.859 68.0281 196.301 67.641C195.81 67.3002 195.274 67.0177 194.743 66.7329C194.264 66.4772 193.74 66.2946 193.282 66.0073C192.859 65.7419 192.438 65.4327 192.116 65.0578C190.991 63.7455 191.383 61.7977 192.9 60.9723C193.713 60.5292 194.597 60.3929 195.5 60.4951C196.192 60.573 196.871 60.7556 197.558 60.8895C197.828 60.9431 197.955 61.0989 197.938 61.3814C197.899 62.0387 197.869 62.6985 197.83 63.4387V63.4338Z" fill="white"/>
<path d="M115.91 63.4101C115.715 63.4563 115.605 63.4953 115.493 63.505C114.997 63.5513 114.926 63.4977 114.834 63.0132C114.763 62.6504 114.692 62.2876 114.631 61.9224C114.6 61.7301 114.519 61.6059 114.325 61.5451C113.645 61.3308 112.966 61.2358 112.26 61.4282C111.707 61.5791 111.306 61.8932 111.184 62.4605C111.048 63.0862 111.15 63.6827 111.69 64.0942C112.09 64.3985 112.53 64.6566 112.973 64.8977C113.434 65.1509 113.925 65.3432 114.388 65.5916C114.78 65.8034 115.17 66.0322 115.525 66.2976C117.451 67.7365 116.601 70.0471 115.267 70.8749C114.588 71.2937 113.85 71.5152 113.056 71.5371C111.814 71.5712 110.631 71.301 109.514 70.87V68.2332H110.546C110.614 68.7031 110.707 69.1584 110.738 69.6161C110.765 70.0276 110.967 70.237 111.335 70.3734C112.146 70.6704 112.961 70.7507 113.791 70.4878C114.425 70.2881 114.804 69.8499 114.911 69.1949C115.016 68.5497 114.846 67.9776 114.31 67.5905C113.886 67.2861 113.412 67.05 112.949 66.8065C112.365 66.4997 111.746 66.2489 111.177 65.9178C110.32 65.4187 109.677 64.7248 109.555 63.69C109.428 62.6188 109.781 61.7301 110.699 61.1214C111.639 60.4957 112.698 60.3813 113.782 60.5054C114.359 60.5712 114.928 60.7124 115.496 60.8512C115.941 60.9607 115.963 61.0021 115.958 61.4501C115.951 62.0904 115.932 62.7283 115.915 63.4101H115.91Z" fill="white"/>
<path d="M207.475 58.5108C207.475 57.8899 207.886 57.4444 208.466 57.4395C209.033 57.4346 209.476 57.8607 209.488 58.4207C209.5 59.0026 209.008 59.4822 208.402 59.4774C207.825 59.4725 207.475 59.1073 207.475 58.5108Z" fill="white"/>
</svg>
