<svg width="211" height="80" viewBox="0 0 211 80" fill="none" xmlns="http://www.w3.org/2000/svg">
<path d="M21.5226 79.9951C21.3424 79.8223 21.1744 79.6324 20.9772 79.4814C16.8503 76.3211 12.7186 73.1682 8.58934 70.0103C8.36292 69.8375 8.14136 69.6597 7.8005 69.3944C8.0951 69.3676 8.23875 69.3432 8.38239 69.3432C9.64845 69.3432 10.9169 69.3944 12.1781 69.3359C14.7419 69.2142 17.2302 68.7151 19.5845 67.6487C23.0102 66.0977 25.4571 63.551 27.1346 60.2276C28.2838 57.9512 28.9801 55.5238 29.4184 53.0209C29.8493 50.5618 30.0417 48.0808 30.049 45.5852C30.049 45.4708 30.0368 45.3539 30.0319 45.2225C29.7665 45.1592 29.6229 45.3491 29.4622 45.4586C27.3927 46.8489 25.2623 48.1393 23.0248 49.2446C20.4343 50.5253 17.7609 51.5746 14.9196 52.1565C12.4752 52.6557 10.021 52.8091 7.5692 52.2223C3.15018 51.1632 0.659466 47.9542 0.123827 43.8006C-0.273032 40.7328 0.32104 37.7966 1.37771 34.9333C2.61454 31.5807 4.43571 28.5544 6.58557 25.7155C9.73366 21.5594 13.4758 17.9974 17.5613 14.7836C21.486 11.694 25.6786 9.00846 30.0563 6.60783C30.2194 6.51774 30.3923 6.44957 30.6187 6.34244C30.6406 6.57131 30.6698 6.71982 30.6698 6.86834C30.6698 8.07596 30.6722 9.28115 30.6649 10.4888C30.6601 11.134 30.6528 11.1364 30.0417 11.3434C26.2898 12.6216 22.8154 14.4257 19.6673 16.8409C16.1321 19.5532 13.1983 22.789 11.1263 26.7624C10.1281 28.6761 9.43419 30.6896 9.21507 32.8492C9.10307 33.9643 9.15177 35.0624 9.49019 36.141C10.1354 38.1934 11.5329 39.4035 13.6292 39.8052C15.2873 40.1242 16.9234 39.9294 18.54 39.513C21.1793 38.8362 23.653 37.7406 25.9878 36.3625C27.9137 35.2255 29.7665 33.9668 31.651 32.7591C31.8287 32.6447 32.004 32.5278 32.2426 32.372C32.3084 32.5911 32.3765 32.7445 32.3985 32.9077C32.788 35.7198 33.2238 38.527 33.5452 41.3464C34.0151 45.4879 34.1904 49.6512 34.0249 53.8195C33.8496 58.2677 33.2604 62.6526 31.8263 66.8939C30.6844 70.2709 29.0239 73.3459 26.6063 75.9924C25.3378 77.3802 23.9159 78.583 22.3309 79.5934C22.1337 79.7176 21.9511 79.8636 21.7636 80H21.5299L21.5226 79.9951Z" fill="#763033"/>
<path d="M38.5802 0C38.6119 0.267819 38.6655 0.538073 38.6703 0.805892C38.6922 2.42011 38.702 4.03676 38.719 5.65098C38.7653 10.0091 38.814 14.3673 38.8651 18.7254C38.8919 21.0798 38.9284 23.4342 38.9625 25.7885C38.9625 25.9371 38.982 26.0831 39.0015 26.3485C39.2279 26.1391 39.3813 26.0028 39.5322 25.8616C42.8167 22.8158 46.4663 20.3348 50.6686 18.723C52.9037 17.866 55.2021 17.3157 57.6149 17.3961C59.7185 17.4667 61.6395 18.0729 63.2391 19.4948C64.4151 20.5417 65.182 21.8662 65.7006 23.3368C66.2849 24.9875 66.504 26.7016 66.5065 28.4424C66.5138 33.1901 66.5065 37.9378 66.5065 42.6855C66.5065 51.5771 66.5065 60.4711 66.5065 69.3627C66.5065 70.5289 66.6209 70.3025 65.535 70.6555C64.4808 70.9964 63.4168 71.3129 62.3577 71.6367C62.1751 71.6927 61.9876 71.7317 61.7515 71.7926C61.7247 71.6026 61.6882 71.4566 61.6857 71.3129C61.6784 70.7286 61.6833 70.1442 61.6833 69.5624C61.6833 58.18 61.6833 46.7953 61.6833 35.413C61.6833 34.5511 61.6103 33.7038 61.3595 32.876C60.6948 30.6945 59.1828 29.4893 56.9794 29.0973C55.241 28.7881 53.5708 29.0973 51.9493 29.7255C50.6565 30.2246 49.4586 30.9185 48.2826 31.6465C45.2368 33.5358 42.3468 35.654 39.4519 37.7601C38.3343 38.5732 37.2119 39.3791 36.0895 40.185C35.9215 40.3043 35.7438 40.4066 35.4784 40.577C35.4492 40.2654 35.4151 40.0633 35.4102 39.8588C35.364 37.5434 35.2909 35.2304 35.2885 32.915C35.2739 23.069 35.2861 13.223 35.2642 3.37696C35.2642 2.72689 35.4297 2.2862 35.9751 1.92099C36.686 1.44622 37.3483 0.898411 38.0276 0.377381C38.181 0.260515 38.3197 0.126605 38.4658 0C38.5048 0 38.5437 0 38.5827 0L38.5802 0Z" fill="#123464"/>
<path d="M162.466 51.0926C162.987 51.0634 163.506 51.0415 164.024 51.0025C166.371 50.8248 168.718 50.6373 171.065 50.462C172.889 50.3256 174.713 50.1966 176.539 50.0749C177.612 50.0043 177.61 50.0116 177.98 49.0255C178.82 46.7856 179.665 44.5481 180.51 42.3081C180.566 42.162 180.595 41.994 180.69 41.882C180.775 41.7822 180.948 41.6653 181.055 41.6873C182.538 41.9843 184.035 42.2253 185.513 42.6587C185.513 42.8413 185.525 42.9947 185.513 43.1432C185.26 45.7167 185.002 48.2902 184.746 50.8661C184.629 52.0275 184.515 53.1889 184.393 54.3502C184.34 54.8542 184.303 54.8907 183.767 54.8932C182.735 54.9005 181.703 54.8932 180.673 54.8956C171.969 54.8956 163.267 54.8883 154.563 54.9151C153.901 54.9151 153.521 54.7227 153.246 54.136C152.983 53.5736 152.64 53.0477 152.328 52.5096C152.233 52.3465 152.126 52.1931 151.931 52.0543V54.8226C151.671 54.8493 151.468 54.8883 151.264 54.8883C145.968 54.8883 140.673 54.8883 135.377 54.8834C135.187 54.8834 134.998 54.8567 134.781 54.842C134.749 54.6814 134.703 54.5547 134.703 54.4257C134.698 53.5103 134.693 52.5972 134.703 51.6818C134.708 51.2216 134.727 51.2046 135.195 51.1364C136.042 51.0122 136.889 50.9002 137.737 50.7761C137.963 50.742 138.187 50.686 138.404 50.6422C138.418 50.0822 136.943 44.8475 136.585 44.1877C136.402 44.1877 136.193 44.1877 135.981 44.1877C132.341 44.2023 128.699 44.2169 125.059 44.2315C124.767 44.2315 124.475 44.2461 124.183 44.2388C123.905 44.2315 123.754 44.3557 123.683 44.6211C123.143 46.5908 122.598 48.558 122.055 50.5253C122.05 50.5423 122.059 50.5642 122.072 50.6568C122.201 50.6933 122.357 50.759 122.517 50.7761C123.579 50.9027 124.643 51.0171 125.707 51.1364C126.123 51.1827 126.184 51.2216 126.191 51.6331C126.211 52.5851 126.201 53.5395 126.203 54.4939C126.203 54.7568 126.082 54.8907 125.814 54.8883C125.658 54.8883 125.502 54.8932 125.346 54.8932C121.064 54.8932 116.779 54.8932 112.496 54.8932C111.61 54.8932 111.607 54.8932 111.597 53.9899C111.59 53.2692 111.585 52.551 111.585 51.8303C111.585 51.6404 111.607 51.448 111.622 51.1973C112.304 51.0634 112.961 50.8588 113.628 50.8199C114.512 50.7688 114.848 50.3159 115.113 49.5173C118.928 37.9962 122.78 26.4849 126.625 14.9735C126.661 14.864 126.71 14.7544 126.734 14.64C126.805 14.3137 127.004 14.2163 127.326 14.2212C128.436 14.2358 129.546 14.2261 130.654 14.2261C132.446 14.2261 134.236 14.2261 136.027 14.2261C136.804 14.2261 136.724 14.1725 136.965 14.8907C139.426 22.2314 141.881 29.5721 144.34 36.9152C145.803 41.288 147.276 45.6559 148.717 50.0335C148.875 50.5107 149.112 50.7274 149.596 50.7858C150.212 50.8613 150.823 50.9928 151.432 51.1194C151.644 51.1632 151.843 51.2654 152.087 51.3555C152.289 51.0415 152.511 50.6982 152.732 50.3573C158.809 40.9398 164.881 31.515 170.975 22.1097C171.492 21.3135 172.149 20.6099 172.76 19.8795C173.196 19.3585 173.668 18.8642 174.121 18.3553C174.245 18.2166 174.352 18.0607 174.491 17.883C174.379 17.8587 174.328 17.8343 174.274 17.8368C172.546 17.9366 170.817 18.034 169.089 18.1411C166.797 18.2847 164.506 18.4503 162.215 18.5793C161.833 18.6013 161.731 18.8155 161.616 19.0955C160.772 21.1674 159.922 23.237 159.072 25.3065C159.021 25.4331 158.963 25.5572 158.919 25.6863C158.824 25.9736 158.653 26.0661 158.342 26.0174C157.054 25.8226 155.761 25.6546 154.473 25.472C154.035 25.4112 153.991 25.3503 154.047 24.8999C154.461 21.5424 154.875 18.1825 155.286 14.825C155.352 14.2967 155.383 14.2577 155.953 14.2577C158.31 14.2528 160.664 14.2553 163.021 14.2577C169.232 14.2626 175.443 14.2699 181.654 14.2796C182.219 14.2796 182.784 14.321 183.346 14.3137C183.672 14.3088 183.836 14.4452 183.952 14.7374C184.262 15.514 184.581 16.2883 184.934 17.0479C185.085 17.3742 185.048 17.6152 184.863 17.9074C183.877 19.4485 182.915 21.0043 181.937 22.5479C176.751 30.7335 171.562 38.919 166.369 47.1021C166.184 47.3942 165.962 47.6767 165.712 47.9177C164.872 48.7285 164.012 49.5198 163.162 50.3183C162.921 50.5423 162.683 50.7688 162.442 50.9928C162.451 51.0268 162.464 51.0609 162.473 51.0926H162.466ZM135.499 39.8953C133.753 33.3605 131.63 27.0205 130.106 20.3908C130.019 20.7049 129.958 20.9045 129.904 21.1066C129.278 23.5559 128.675 26.0101 128.025 28.4521C127.058 32.0774 126.06 35.6954 125.076 39.3183C125.027 39.4936 125.001 39.6737 124.954 39.8953H135.499Z" fill="#123464"/>
<path d="M107.87 26.1318C107.639 26.1489 107.466 26.1708 107.295 26.1708C105.484 26.1708 103.675 26.1732 101.863 26.1708C101.294 26.1708 101.289 26.1635 101.172 25.6157C100.743 23.5997 100.305 21.5838 99.9011 19.563C99.7939 19.0346 99.548 18.6427 99.0586 18.4625C98.4061 18.2214 97.7415 17.9804 97.0622 17.8416C95.4601 17.5202 93.8508 17.5397 92.256 17.922C90.4617 18.3529 89.0495 19.3779 87.9003 20.7925C86.6099 22.3824 85.8625 24.2303 85.3536 26.1854C84.835 28.1697 84.5428 30.193 84.5234 32.2406C84.5039 34.2614 84.5209 36.2895 84.65 38.3054C84.8326 41.1127 85.356 43.8615 86.5028 46.4569C87.0896 47.7862 87.8127 49.0182 88.957 49.9629C90.2352 51.0171 91.6863 51.5771 93.3492 51.6039C94.6421 51.6258 95.9154 51.5284 97.1547 51.1413C97.9216 50.9027 98.635 50.5521 99.2997 50.0992C99.548 49.9288 99.6576 49.7316 99.6576 49.4248C99.6478 45.9602 99.6503 42.498 99.6454 39.0334C99.6454 38.5197 99.6016 38.4978 99.0757 38.4418C97.7025 38.2933 96.3318 38.135 94.961 37.9792C94.8661 37.9695 94.7735 37.9402 94.6908 37.9232C94.5276 37.4533 94.5179 34.5803 94.6688 33.9814C95.1582 33.8329 111.03 33.8304 111.602 33.9911V37.9354C111.152 38.0206 110.704 38.1107 110.251 38.191C109.964 38.2421 109.674 38.2762 109.387 38.3249C108.98 38.3955 108.953 38.4272 108.936 38.8557C108.929 39.031 108.936 39.2063 108.936 39.3816C108.934 43.545 108.929 47.7108 108.927 51.8741C108.927 52.1225 108.927 52.3733 108.927 52.6654C108.352 52.775 107.836 52.8578 107.329 52.9746C104.999 53.5127 102.672 54.0581 100.342 54.6059C97.6197 55.2438 94.8636 55.5773 92.0661 55.4751C88.8377 55.3558 85.7334 54.7057 82.8945 53.0866C78.7506 50.7201 76.1065 47.163 74.6944 42.6539C73.6572 39.3426 73.4064 35.9438 73.6864 32.4962C73.8398 30.6093 74.1174 28.7467 74.6968 26.9402C76.725 20.6221 80.9784 16.6121 87.3501 14.8226C89.517 14.2139 91.735 13.9461 93.9774 13.8901C97.6879 13.8 101.357 14.2139 105.004 14.8664C106.02 15.0466 107.027 15.2535 108.038 15.4629C108.566 15.5725 108.571 15.6066 108.539 16.1178C108.391 18.5258 108.245 20.9337 108.096 23.3392C108.052 24.038 108.014 24.7368 107.965 25.4355C107.95 25.6473 107.906 25.8543 107.865 26.1318H107.87Z" fill="#123464"/>
<path d="M207.187 14.3551C207.221 14.6254 207.265 14.8128 207.267 15.0027C207.277 15.9182 207.282 16.8312 207.275 17.7467C207.27 18.2434 207.236 18.275 206.768 18.3554C205.619 18.5501 204.467 18.7425 203.316 18.9348C202.734 19.0322 202.707 19.0565 202.695 19.6311C202.692 19.748 202.695 19.8649 202.695 19.9817C202.695 29.9057 202.695 39.832 202.697 49.7559C202.697 50.0237 202.697 50.2916 202.697 50.63C204.234 50.8418 205.709 51.0439 207.155 51.2435C207.338 51.8571 207.318 54.2967 207.131 54.8542H188.963C188.939 54.5913 188.902 54.3673 188.897 54.1409C188.883 53.3423 188.868 52.5461 188.871 51.7475C188.871 51.2143 188.897 51.1997 189.414 51.1267C190.531 50.9708 191.649 50.8175 192.764 50.6616C192.912 50.6397 193.058 50.5959 193.236 50.5521C193.246 50.311 193.265 50.0992 193.265 49.8874C193.265 39.8661 193.265 29.8424 193.265 19.8211C193.265 19.7431 193.265 19.6652 193.265 19.5873C193.253 19.0322 193.246 19.0273 192.681 18.9324C191.549 18.74 190.419 18.5501 189.289 18.3529C188.866 18.2774 188.832 18.2482 188.827 17.8295C188.815 16.8361 188.815 15.8452 188.822 14.8518C188.824 14.4306 188.873 14.3819 189.299 14.3746C190.137 14.36 190.974 14.3624 191.812 14.36C196.698 14.3575 201.585 14.3551 206.471 14.3551C206.683 14.3551 206.895 14.3551 207.187 14.3551Z" fill="#123464"/>
<path d="M197.752 10.9246C196.618 10.9343 195.59 10.647 194.69 9.95557C193.721 9.21542 193.187 8.23179 193.144 7.01443C193.127 6.49584 193.146 5.95776 193.253 5.45134C193.611 3.76652 194.624 2.64168 196.294 2.17421C197.553 1.82118 198.833 1.81874 200.092 2.19125C201.933 2.7342 202.999 4.16094 203.009 6.08193C203.009 6.44958 202.994 6.82452 202.921 7.18243C202.515 9.18133 201.276 10.3865 199.255 10.7493C198.76 10.8369 198.254 10.8686 197.752 10.9246Z" fill="#123464"/>
<path d="M210.559 71.3543C209.166 71.4224 207.776 71.3884 206.357 71.3859V70.6579C206.608 70.6068 206.829 70.5484 207.056 70.5216C207.613 70.4583 207.618 70.4632 207.62 69.8837C207.625 68.8538 207.62 67.8264 207.62 66.7965C207.62 65.3016 207.62 63.8066 207.62 62.3117C207.62 62.1023 207.62 61.8905 207.62 61.6519C207.182 61.5667 206.79 61.4888 206.347 61.4011C206.33 61.1625 206.313 60.941 206.291 60.6342C207.043 60.5636 207.754 60.605 208.463 60.6001C209.162 60.5928 209.86 60.605 210.559 60.6099V61.4279C210.16 61.4937 209.763 61.5594 209.332 61.63V70.434C209.765 70.5119 210.162 70.5825 210.559 70.6531V71.3543Z" fill="#763033"/>
<path d="M81.0199 71.3153C80.8835 70.7334 80.9955 70.6044 81.5677 70.524C82.135 70.4461 82.1399 70.4437 82.1423 69.891C82.1472 68.8976 82.1447 67.9067 82.1423 66.9133C82.1423 66.76 82.1204 66.6066 82.1106 66.4629C81.6602 66.3339 77.8767 66.3144 77.2315 66.4386C77.2169 66.6139 77.1925 66.8013 77.1901 66.9913C77.1852 67.9457 77.1852 68.8976 77.1901 69.8521C77.1925 70.4656 77.1974 70.4632 77.7866 70.524C77.9765 70.5435 78.1664 70.5873 78.3928 70.6263V71.3713H74.4388V70.6531C74.6823 70.6044 74.9063 70.5313 75.1303 70.5192C75.459 70.5021 75.5783 70.3366 75.5637 70.0322C75.5588 69.9348 75.5637 69.8374 75.5637 69.7401C75.5539 67.2493 75.5442 64.7586 75.532 62.2679C75.532 62.061 75.4979 61.854 75.4809 61.647C75.1181 61.557 74.804 61.4766 74.4608 61.3914V60.6245C75.7731 60.5855 77.0464 60.5904 78.3807 60.6147C78.4001 60.885 78.4147 61.1065 78.4342 61.3817C78.0301 61.4693 77.6575 61.5497 77.2193 61.647C77.1682 62.8571 77.1876 64.072 77.2071 65.2699C77.6916 65.3965 81.11 65.433 82.1058 65.3308C82.1959 64.1305 82.1252 62.9155 82.1447 61.6422C81.9353 61.6032 81.7503 61.5691 81.5677 61.5326C80.9615 61.4084 80.9274 61.3524 81.0637 60.6172C82.32 60.5928 83.5934 60.5928 84.9179 60.6172V61.3817C84.5794 61.4669 84.2483 61.5521 83.8588 61.6495C83.8466 61.8224 83.8223 62.0074 83.8223 62.1949C83.8198 64.744 83.8198 67.2932 83.8223 69.8423C83.8223 70.4315 83.8271 70.434 84.4066 70.524C84.8156 70.5873 85.0688 70.6652 84.93 71.2691C84.5283 71.4127 81.7795 71.4492 81.0248 71.3129L81.0199 71.3153Z" fill="#763033"/>
<path d="M165.475 68.6931C165.592 66.2901 165.509 63.9844 165.527 61.6422C165.261 61.5959 165.057 61.5618 164.852 61.5229C164.251 61.406 164.214 61.3427 164.358 60.6464C164.514 60.6318 164.682 60.6026 164.852 60.6001C165.631 60.5952 166.408 60.5928 167.187 60.6001C167.815 60.605 167.852 60.6659 167.703 61.406C167.394 61.4742 167.058 61.5497 166.649 61.6397V71.3445C166.25 71.3591 165.923 71.403 165.602 71.3713C165.458 71.3567 165.295 71.2204 165.198 71.0962C164.981 70.8235 164.799 70.5216 164.604 70.2319C162.982 67.8069 161.361 65.3819 159.739 62.9569C159.698 62.8961 159.649 62.8401 159.544 62.7037V70.4315C159.973 70.4997 160.384 70.5654 160.823 70.6336V71.3445H157.343C157.319 71.2106 157.285 71.084 157.275 70.955C157.253 70.6945 157.382 70.5533 157.64 70.5313C157.757 70.5216 157.874 70.5094 157.989 70.5046C158.266 70.4899 158.424 70.3633 158.41 70.0663C158.405 69.9884 158.41 69.9105 158.41 69.8326C158.41 67.3029 158.41 64.7757 158.41 62.246C158.41 62.0561 158.393 61.8637 158.381 61.6446C158.018 61.5643 157.682 61.4912 157.309 61.4109V60.6561C157.472 60.6342 157.638 60.5977 157.804 60.5952C158.349 60.5879 158.894 60.6172 159.437 60.5831C159.839 60.5587 160.085 60.717 160.302 61.0384C161.249 62.4408 162.215 63.8286 163.165 65.231C163.917 66.3388 164.652 67.4587 165.475 68.6907V68.6931Z" fill="#763033"/>
<path d="M102.285 71.3616H98.5449C98.3623 70.6945 98.4208 70.6019 99.0222 70.5265C99.1731 70.507 99.3241 70.4875 99.5578 70.4559C99.5042 70.2246 99.475 70.02 99.4117 69.8301C99.2632 69.3919 99.0952 68.9561 98.9369 68.5203C98.4743 68.4935 98.0142 68.4545 97.5516 68.4448C96.8114 68.4326 96.0737 68.4375 95.3336 68.4448C94.8588 68.4496 94.8515 68.4545 94.7103 68.8855C94.5496 69.3797 94.4059 69.8788 94.2428 70.4193C94.6518 70.5046 95.0024 70.5776 95.3871 70.6555C95.4017 70.8965 95.4163 71.0986 95.4309 71.347H91.9736C91.8665 70.6969 91.886 70.6117 92.4046 70.5338C92.7722 70.4778 92.8794 70.2562 92.9792 69.9714C93.5343 68.3742 94.0943 66.777 94.6518 65.1798C95.1315 63.8042 95.6087 62.4237 96.0907 61.0481C96.2782 60.5149 96.2831 60.5076 96.8358 60.5052C98.1578 60.5003 97.8949 60.3834 98.2966 61.5131C99.2875 64.296 100.264 67.0862 101.238 69.8764C101.367 70.2465 101.496 70.5338 101.98 70.5459C102.35 70.5557 102.392 70.7237 102.287 71.3591L102.285 71.3616ZM98.5547 67.4392C98.4962 66.8354 97.0719 62.4748 96.8212 62.134C96.2734 63.8992 95.7328 65.6497 95.1777 67.4392H98.5571H98.5547Z" fill="#763033"/>
<path d="M175.319 60.6269C175.575 60.6147 175.767 60.5977 175.957 60.5977C177.983 60.5977 180.006 60.5977 182.031 60.6001C182.168 60.6001 182.314 60.5782 182.436 60.622C182.548 60.661 182.708 60.7681 182.716 60.8582C182.772 61.5277 182.935 62.1949 182.854 62.9155C182.65 62.9326 182.482 62.9472 182.311 62.9569C182.08 62.9691 181.958 62.8498 181.898 62.6307C181.8 62.2971 181.686 61.966 181.562 61.5837C180.432 61.5448 179.314 61.5058 178.216 61.4693C178.08 61.9416 178.06 64.671 178.182 65.3649C178.874 65.4233 179.585 65.3795 180.327 65.3649C180.383 65.1847 180.446 65.0264 180.483 64.8609C180.639 64.1621 180.639 64.1597 181.381 64.2473C181.527 64.6807 181.549 66.9401 181.403 67.561C181.289 67.5804 181.16 67.6048 181.028 67.6194C180.709 67.6535 180.573 67.4806 180.529 67.186C180.49 66.9231 180.429 66.6626 180.376 66.3826H178.151V70.4656C178.336 70.4753 178.504 70.4948 178.672 70.4899C179.604 70.4607 180.539 70.3999 181.471 70.4047C181.915 70.4047 182.143 70.2513 182.287 69.8447C182.433 69.426 182.638 69.0267 182.828 68.5933C183.003 68.6176 183.156 68.6201 183.3 68.659C183.668 68.7637 183.758 68.8635 183.709 69.2434C183.619 69.9348 183.49 70.6214 183.38 71.2837C182.859 71.4151 175.952 71.4322 175.351 71.3177C175.2 70.6677 175.263 70.5752 175.911 70.5167C176.044 70.5046 176.178 70.4875 176.376 70.4632C176.398 70.2976 176.439 70.132 176.439 69.9689C176.444 67.3224 176.441 64.6758 176.439 62.0293C176.439 61.9149 176.417 61.798 176.4 61.6422C176.052 61.5691 175.701 61.4961 175.319 61.4157V60.6269Z" fill="#763033"/>
<path d="M150.236 71.3591H146.541C146.375 70.7578 146.453 70.619 146.986 70.5338C147.154 70.507 147.327 70.4875 147.568 70.4558C147.439 69.7546 147.2 69.1289 146.962 68.4764H142.859C142.657 69.1094 142.455 69.7473 142.236 70.4291C142.655 70.5021 143.005 70.563 143.392 70.6311C143.405 70.8795 143.417 71.0864 143.427 71.2837C142.915 71.4249 140.425 71.4249 139.928 71.2983C139.857 70.8284 139.918 70.6238 140.315 70.5532C140.787 70.468 140.929 70.1759 141.062 69.7839C142.061 66.8768 143.076 63.9771 144.084 61.0749C144.269 60.5417 144.279 60.5246 144.819 60.5125C146.18 60.4808 145.878 60.3688 146.285 61.4985C147.273 64.2424 148.235 66.9985 149.194 69.7546C149.343 70.1783 149.472 70.5289 150.027 70.5678C150.417 70.5946 150.446 70.787 150.236 71.3591ZM143.188 67.4124C144.03 67.5366 146.163 67.505 146.621 67.3613C146.059 65.6181 145.496 63.8772 144.934 62.1364L144.824 62.151C144.284 63.8894 143.743 65.6278 143.188 67.4149V67.4124Z" fill="#763033"/>
<path d="M124.17 60.6367C124.385 60.6245 124.574 60.6026 124.764 60.6001C127.353 60.5977 129.938 60.5953 132.526 60.5977C133.164 60.5977 133.189 60.6245 133.218 61.238C133.259 62.0926 133.298 62.9472 133.335 63.8018C133.344 64.0306 133.335 64.2595 133.335 64.52C133.13 64.5492 132.982 64.5858 132.836 64.5882C132.388 64.5906 132.339 64.5517 132.266 64.111C132.146 63.4025 132.037 62.6916 131.922 61.9806C131.903 61.8686 131.871 61.7566 131.83 61.5789H129.575C129.471 61.9563 129.429 69.5258 129.544 70.3731C130.128 70.6726 130.837 70.3804 131.492 70.6945C131.501 70.8795 131.511 71.0816 131.518 71.2739C131.017 71.42 126.741 71.4395 125.977 71.308V70.6799C126.374 70.4924 126.805 70.5338 127.223 70.5094C127.749 70.4802 127.791 70.4486 127.793 69.93C127.796 67.2664 127.793 64.6028 127.791 61.9368C127.791 61.8224 127.769 61.7104 127.752 61.5643H125.436C125.254 62.5747 125.081 63.5413 124.898 64.5419H123.966C123.851 64.1402 123.988 61.4596 124.168 60.6342L124.17 60.6367Z" fill="#763033"/>
<path d="M197.83 63.4341C197.514 63.4658 197.251 63.495 196.978 63.5218C196.71 63.0908 196.737 62.6283 196.65 62.1997C196.528 61.6057 196.53 61.5886 195.939 61.445C195.364 61.3038 194.792 61.2721 194.21 61.4304C193.63 61.5886 193.253 61.9344 193.124 62.5236C192.993 63.1225 193.131 63.6703 193.604 64.055C194.005 64.3837 194.47 64.6418 194.928 64.8974C195.335 65.1238 195.778 65.2845 196.187 65.5085C196.63 65.7496 197.076 65.9955 197.48 66.2974C199.413 67.7436 198.539 70.0761 197.224 70.8771C196.579 71.2691 195.885 71.476 195.13 71.5296C194.127 71.6026 192.321 71.2788 191.371 70.7919C191.41 69.9811 191.449 69.1338 191.493 68.2305C191.826 68.2111 192.109 68.1965 192.391 68.1818C192.671 68.6128 192.649 69.0778 192.676 69.5063C192.71 70.0517 192.968 70.2903 193.453 70.4388C194.217 70.6726 194.977 70.7286 195.746 70.4948C196.362 70.3074 196.737 69.8813 196.852 69.258C196.966 68.6274 196.859 68.0285 196.301 67.6413C195.81 67.3005 195.274 67.018 194.743 66.7332C194.263 66.4775 193.74 66.2949 193.282 66.0076C192.859 65.7423 192.437 65.433 192.116 65.0581C190.991 63.7458 191.383 61.798 192.9 60.9726C193.713 60.5295 194.597 60.3932 195.5 60.4954C196.192 60.5733 196.871 60.756 197.558 60.8899C197.828 60.9434 197.955 61.0992 197.937 61.3817C197.899 62.039 197.869 62.6989 197.83 63.439V63.4341Z" fill="#763033"/>
<path d="M115.909 63.4098C115.715 63.456 115.605 63.495 115.493 63.5047C114.996 63.551 114.926 63.4974 114.833 63.0129C114.763 62.6501 114.692 62.2874 114.631 61.9222C114.599 61.7298 114.519 61.6056 114.324 61.5448C113.645 61.3305 112.966 61.2356 112.26 61.4279C111.707 61.5789 111.305 61.8929 111.184 62.4602C111.047 63.086 111.149 63.6825 111.69 64.0939C112.089 64.3983 112.53 64.6563 112.973 64.8974C113.433 65.1506 113.925 65.3429 114.388 65.5913C114.78 65.8031 115.169 66.032 115.525 66.2973C117.451 67.7363 116.601 70.0468 115.267 70.8746C114.587 71.2934 113.85 71.515 113.056 71.5369C111.814 71.5709 110.631 71.3007 109.513 70.8697V68.2329H110.546C110.614 68.7028 110.706 69.1581 110.738 69.6159C110.765 70.0273 110.967 70.2367 111.335 70.3731C112.145 70.6701 112.961 70.7505 113.791 70.4875C114.424 70.2879 114.804 69.8496 114.911 69.1947C115.016 68.5495 114.845 67.9773 114.31 67.5902C113.886 67.2858 113.411 67.0497 112.949 66.8062C112.364 66.4994 111.746 66.2486 111.176 65.9175C110.319 65.4184 109.676 64.7245 109.555 63.6898C109.428 62.6185 109.781 61.7298 110.699 61.1211C111.639 60.4954 112.698 60.381 113.781 60.5051C114.358 60.5709 114.928 60.7121 115.495 60.8509C115.941 60.9604 115.963 61.0018 115.958 61.4498C115.951 62.0902 115.931 62.728 115.914 63.4098H115.909Z" fill="#763033"/>
<path d="M207.474 58.5111C207.474 57.8903 207.886 57.4447 208.465 57.4399C209.032 57.435 209.476 57.8611 209.488 58.421C209.5 59.0029 209.008 59.4826 208.402 59.4777C207.825 59.4728 207.474 59.1076 207.474 58.5111Z" fill="#763033"/>
</svg>
