<svg width="426" height="56" viewBox="0 0 426 56" fill="none" xmlns="http://www.w3.org/2000/svg">
<path d="M188.988 52.6577C235.14 52.3196 286.606 51.0106 337.137 47.1194C352.833 45.9111 368.261 44.4726 382.823 42.0846C389.398 41.036 395.625 39.7732 401.408 38.3157C405.612 37.198 409.146 35.8401 411.835 34.3095C418.193 30.7132 416.414 27.0235 406.699 24.3478C400.879 22.7787 394.488 21.4454 387.669 20.3775C367.973 17.3426 347.308 15.0151 326.044 13.4367C308.457 12.1643 290.559 11.3941 272.555 11.1351C270.432 11.1635 268.31 11.071 266.286 10.8618C264.819 10.646 262.84 9.97713 263.018 9.58873C263.275 9.28396 263.721 8.99928 264.329 8.75199C264.936 8.5047 265.693 8.29997 266.553 8.15023C268.355 7.96636 270.261 7.91476 272.133 7.99918C301.389 7.90568 329.645 9.79731 357.146 12.8541C370.551 14.369 383.687 16.1218 396.495 18.1047C403.303 19.1877 409.562 20.5991 415.058 22.2908C426.596 25.7863 428.953 30.5047 422.395 35.151C418.954 37.5254 413.818 39.6012 407.411 41.2071C396.162 44.1345 383.223 46.0046 369.751 47.5438C343.74 50.5287 316.773 52.2261 289.518 53.4776C257.104 54.9655 224.434 55.7967 191.7 55.9662C152.461 56.1676 113.468 55.5203 75.1408 52.5929C59.842 51.4943 45.1492 49.6487 31.5673 47.1194C22.6004 45.5233 14.7334 43.3525 8.4467 40.7396C-1.55741 36.3666 -2.55783 31.7202 4.82298 26.8868C9.13758 24.2288 14.9686 21.8591 22.0078 19.9028C40.1709 14.5444 61.5797 10.9553 84.2557 8.10707C113.823 4.38853 144.636 2.35304 176.027 1.10153C216.123 -0.386179 256.616 -0.366869 296.699 1.15908C331.402 2.40339 365.616 4.46045 398.452 8.4667C402.653 8.98456 406.699 9.62469 410.79 10.2361C413.636 10.6676 415.481 11.3365 414.258 12.3938C413.347 13.2066 410.59 13.4511 406.922 12.9189C386.247 9.88363 364.26 8.3588 342.228 6.86276C316.433 5.18137 290.294 4.10688 264.018 3.6477C217.582 2.66187 170.951 3.94453 125.695 7.45255C101.179 9.27641 77.5914 12.2214 55.6439 16.1987C44.1362 18.2186 33.6422 20.7917 24.52 23.83C21.0957 24.9979 18.0559 26.2779 15.4496 27.6492C7.5352 31.9144 8.7802 36.1076 19.3846 39.6464C24.8973 41.4336 31.0639 42.9964 37.7476 44.2999C52.4648 47.2273 68.8716 48.7593 85.6785 49.8742C117.958 52.0463 150.572 52.6792 188.988 52.6577Z" fill="#FFB23E"/>
</svg>
