<svg width="202" height="53" viewBox="0 0 202 53" fill="none" xmlns="http://www.w3.org/2000/svg">
<path d="M89.6138 49.8367C111.498 49.5168 135.902 48.2779 159.863 44.5952C167.306 43.4515 174.622 42.0901 181.526 39.8301C184.644 38.8377 187.597 37.6425 190.339 36.2631C192.333 35.2052 194.008 33.9201 195.283 32.4715C198.298 29.0679 197.455 25.5758 192.848 23.0435C190.088 21.5584 187.058 20.2966 183.824 19.2859C174.485 16.4135 164.686 14.2107 154.603 12.7169C146.264 11.5126 137.777 10.7837 129.24 10.5386C128.233 10.5655 127.227 10.4779 126.267 10.2799C125.571 10.0757 124.633 9.44264 124.717 9.07505C124.839 8.78661 125.051 8.51718 125.339 8.28314C125.627 8.0491 125.986 7.85533 126.394 7.71361C127.248 7.5396 128.152 7.49076 129.04 7.57065C142.912 7.48216 156.311 9.27246 169.351 12.1655C175.707 13.5992 181.936 15.2582 188.009 17.1348C191.237 18.1598 194.205 19.4956 196.812 21.0966C202.283 24.4049 203.4 28.8705 200.29 33.2679C198.659 35.5151 196.224 37.4797 193.185 38.9996C187.851 41.7702 181.716 43.54 175.328 44.9968C162.994 47.8218 150.207 49.4283 137.283 50.6127C121.913 52.021 106.422 52.8076 90.8999 52.9681C72.2939 53.1587 53.8039 52.546 35.6301 49.7755C28.3758 48.7357 21.4088 46.9889 14.9685 44.5952C10.7166 43.0845 6.98624 41.03 4.00524 38.5572C-0.738491 34.4184 -1.21287 30.0209 2.28695 25.4464C4.33284 22.9308 7.09777 20.6881 10.4356 18.8366C19.0482 13.7652 29.1998 10.3684 39.9522 7.67277C53.9726 4.15343 68.5833 2.22698 83.4681 1.04252C102.481 -0.36549 121.682 -0.347215 140.688 1.09698C157.144 2.27463 173.367 4.2215 188.937 8.01313C190.929 8.50325 192.848 9.10909 194.788 9.6877C196.137 10.0961 197.012 10.7292 196.432 11.7299C196 12.4991 194.693 12.7305 192.953 12.2268C183.15 9.35415 172.724 7.91101 162.277 6.49511C150.046 4.9038 137.651 3.88687 125.192 3.45229C103.173 2.51927 81.0612 3.73322 59.6018 7.05331C47.9768 8.77946 36.7921 11.5667 26.3851 15.3309C20.9284 17.2426 15.9524 19.6778 11.6269 22.5534C10.0031 23.6588 8.5617 24.8701 7.32585 26.168C3.57303 30.2047 4.16338 34.1733 9.19174 37.5225C11.8058 39.214 14.7298 40.693 17.8991 41.9267C24.8777 44.6973 32.6574 46.1472 40.6269 47.2023C55.9333 49.2581 71.3979 49.8572 89.6138 49.8367Z" fill="#FFB23E"/>
</svg>
